<svg width="57" height="79" viewBox="0 0 57 79" fill="none" xmlns="http://www.w3.org/2000/svg">
<path fill-rule="evenodd" clip-rule="evenodd" d="M43.0558 2.39403C42.8157 2.75432 42.5737 3.19186 42.3493 3.5975L41.1668 5.73477L30.7989 10.8303C30.5195 10.9676 30.3475 11.0521 30.1836 11.1364C24.222 14.1976 20.0217 19.9498 18.7573 26.6571C18.7224 26.842 18.6893 27.0351 18.6346 27.3539L18.6301 27.3802C18.5717 27.7208 18.5459 27.8708 18.5195 28.0156C17.5434 33.353 15.011 38.2241 11.2873 41.9707C11.1864 42.0723 11.0809 42.1761 10.8394 42.4133L7.88995 45.3136C6.04184 47.1305 4.55203 48.5957 3.43817 49.8555C2.30118 51.1422 1.38447 52.3998 0.833595 53.8463C-0.637325 57.7084 -0.142325 62.0857 2.16584 65.5071C3.03158 66.79 4.21195 67.8006 5.60965 68.784C6.97816 69.7465 8.75836 70.819 10.9638 72.1474L13.5782 73.7222C15.7827 75.0503 17.5632 76.1228 19.0475 76.8789C20.5584 77.6481 22.0055 78.2205 23.5407 78.365C27.6382 78.7496 31.6034 76.9529 34.1004 73.6573C35.0306 72.4297 35.6132 70.9748 36.1086 69.3167C36.5963 67.6847 37.0663 65.6105 37.6512 63.0284L38.5829 58.9173C38.6591 58.5807 38.6925 58.4326 38.7266 58.2896C39.9824 53.0188 42.7669 48.3038 46.68 44.7794C46.7859 44.6837 46.8967 44.5862 47.1504 44.3629L47.1706 44.3453C47.4074 44.137 47.5519 44.0094 47.6894 43.8844C52.668 39.3483 55.2999 32.6853 54.8665 25.8672C54.8544 25.6793 54.8387 25.4839 54.813 25.1613L53.8534 13.182L55.1555 10.8286C55.3652 10.45 55.5936 10.0374 55.763 9.66334C55.9555 9.23827 56.1704 8.65901 56.2023 7.95211C56.2448 7.0082 55.9948 6.07415 55.4862 5.27786C55.1052 4.68152 54.6297 4.28709 54.2505 4.01506C53.9172 3.77567 53.5132 3.53238 53.1425 3.30916L50.1527 1.50816C49.7556 1.26888 49.3273 1.01082 48.9394 0.818794C48.5019 0.60235 47.8966 0.3543 47.1497 0.309494C46.1604 0.250167 45.1788 0.51303 44.3516 1.0587C43.7272 1.47058 43.3264 1.98798 43.0558 2.39403ZM43.021 10.9518L48.4176 14.2026L49.3284 25.5732C49.3471 25.8077 49.3588 25.952 49.3669 26.0623L45.4978 27.3519C43.1919 28.1205 40.6534 27.6678 38.7552 26.1493C34.8975 23.0631 29.5973 22.5016 25.1786 24.711L24.9597 24.8204C26.396 20.9941 29.1493 17.8502 32.696 16.029C32.8119 15.9695 32.938 15.9074 33.2501 15.754L43.021 10.9518Z" fill="#EDF6CC"/>
</svg>
